# xmcd CD database file
#
# Track frame offsets:
#	182
#	15447
#	30535
#	44645
#	60420
#	75375
#	93975
#	112985
#	128265
#	140282
#
# Disc length: 2084 seconds
#
# Revision: 2
# Processed by: cddbd v1.5.1PL0 Copyright (c) Steve Scherf et al.
# Submitted via: CDex 1.51
#
DISCID=6a08220a
DTITLE=Suzy Bogguss - Something Up My Sleeve
DYEAR=1993
DGENRE=Country
TTITLE0=Diamonds And Tears
TTITLE1=Just Like The Weather
TTITLE2=I Keep Comin' Back To You
TTITLE3=You Never Will
TTITLE4=You'd Be The One
TTITLE5=Hey Cinderella
TTITLE6=Souvenirs
TTITLE7=You Wouldn't Say That To A Stranger
TTITLE8=No Green Eyes
TTITLE9=Something Up My Sleeve
EXTD=YEAR: 1993
EXTT0=
EXTT1=
EXTT2=
EXTT3=
EXTT4=
EXTT5=
EXTT6=
EXTT7=
EXTT8=
EXTT9=(with Billy Dean)
PLAYORDER=
